<svg width="500" height="500" viewBox="0 0 500 500" fill="none" xmlns="http://www.w3.org/2000/svg">
<g filter="url(#filter0_d_191_2)">
<rect x="38.5" y="152.5" width="423" height="195" rx="18.5" fill="black" stroke="white" stroke-dasharray="5 2"/>
</g>
<g filter="url(#filter1_d_191_2)">
<path d="M288.454 268.422L326.958 293.427L299.693 293.427L286.051 314.27L288.454 268.422Z" fill="#1B1B1B"/>
<path d="M286.647 312.446L288.908 269.313L325.27 292.927L299.693 292.927L299.423 292.927L299.275 293.153L286.647 312.446Z" stroke="white"/>
</g>
<path d="M245.869 267.746C241.869 270.055 236.869 267.168 236.869 262.55L236.869 237.596C236.869 232.977 241.869 230.09 245.869 232.4L267.48 244.877C271.48 247.186 271.48 252.96 267.48 255.269L245.869 267.746Z" fill="white"/>
<defs>
<filter id="filter0_d_191_2" x="34" y="152" width="432" height="204" filterUnits="userSpaceOnUse" color-interpolation-filters="sRGB">
<feFlood flood-opacity="0" result="BackgroundImageFix"/>
<feColorMatrix in="SourceAlpha" type="matrix" values="0 0 0 0 0 0 0 0 0 0 0 0 0 0 0 0 0 0 127 0" result="hardAlpha"/>
<feOffset dy="4"/>
<feGaussianBlur stdDeviation="2"/>
<feComposite in2="hardAlpha" operator="out"/>
<feColorMatrix type="matrix" values="0 0 0 0 0 0 0 0 0 0 0 0 0 0 0 0 0 0 0.25 0"/>
<feBlend mode="normal" in2="BackgroundImageFix" result="effect1_dropShadow_191_2"/>
<feBlend mode="normal" in="SourceGraphic" in2="effect1_dropShadow_191_2" result="shape"/>
</filter>
<filter id="filter1_d_191_2" x="282.051" y="268.421" width="48.9072" height="53.8486" filterUnits="userSpaceOnUse" color-interpolation-filters="sRGB">
<feFlood flood-opacity="0" result="BackgroundImageFix"/>
<feColorMatrix in="SourceAlpha" type="matrix" values="0 0 0 0 0 0 0 0 0 0 0 0 0 0 0 0 0 0 127 0" result="hardAlpha"/>
<feOffset dy="4"/>
<feGaussianBlur stdDeviation="2"/>
<feComposite in2="hardAlpha" operator="out"/>
<feColorMatrix type="matrix" values="0 0 0 0 0 0 0 0 0 0 0 0 0 0 0 0 0 0 0.25 0"/>
<feBlend mode="normal" in2="BackgroundImageFix" result="effect1_dropShadow_191_2"/>
<feBlend mode="normal" in="SourceGraphic" in2="effect1_dropShadow_191_2" result="shape"/>
</filter>
</defs>
</svg>
